<svg xmlns="http://www.w3.org/2000/svg" xmlns:xlink="http://www.w3.org/1999/xlink" width="460" height="180" xmlns:v="https://vecta.io/nano"><path d="M69.124 157.319c-7.282-5.728-15.05-11.219-20.359-18.952-11.169-13.637-19.769-29.425-25.649-46.017-3.554-10.789-4.771-22.355-9.352-32.727-4.792-7.533.821-15.768 9.073-18.162 3.674-.705 10.133-4.17 2.336-1.694-6.991 5.129-7.667-4.656-.499-5.275 4.892-.65 6.693-4.655 5.02-8.26-5.251-3.424 12.734-7.188 3.684-12.298-9.427-10.171 13.186-12.129 7.607-.578-1.335 8.882 15.801-1.628 11.825 8.629 4.041 4.926 15.134 1.121 14.858 8.031 5.887.405 7.908 5.358 13.434 5.738 5.728 2.587 16.111 4.625 18.06 11.079-5.682 4.499-18.841-9.293-19.473 3.16 1.717 18.396 1.279 37.346 8.01 54.865 3.184 10.608 10.901 18.958 17.871 27.219 6.669 8.091 15.702 13.787 24.909 18.583 8.076 3.809 16.784 6.335 25.586 7.92 3.57-2.731 9.873-12.883 15.442-8.602.264 4.81-11.054 10.055-.532 9.524 6.178-1.864 10.463 4.778 15.551-1.213 4.687 5.552 19.482-3.547 16.147 7.801-4.51 2.91-11.087 1.151-15.604 5.154-7.448-3.72-13.377 3.328-21.622 2.437-9.156 1.64-18.472 2.302-27.755 2.316-15.23-1.203-30.782-1.71-45.27-7.013-8.162-2.372-16.126-7.019-23.3-11.668zm12.862 5.573c7.97 3.447 15.762 7.079 24.497 8.175 13.857 1.927 28.167 4.892 42.073 2.188-6.294-2.842-12.801 1.107-19.071-2.032-7.52 1.618-15.59-.412-23.236-1.412-8.694-3.873-18.076-6.535-26.218-11.562-10.173-3.716 5.261 4.765 8.009 5.452 6.36 3.61-6.993-1.85-8.876-3.351-5.326-2.988-6.005-2.364-.527.671 1.103.646 2.194 1.322 3.349 1.872zm-15.165-10.717c7.723 2.861-.034-5.431-3.573-4.949-1.568-2.72-5.99-4.439-2.871-5.9-5.612 1.948-5.878-7.408-8.516-6.071-5.937-1.875-2.31-8.515-9.382-12.593-.645-4.297-7.026-8.024-9.061-14.505-.899-3.318-7.208-12.848-3.332-3.979 3.3 8.537 9.107 15.849 13.939 23.152 3.752 6.953 8.182 14.22 15.016 18.558 2.303 2.21 4.527 5.595 7.78 6.288zm-22.248-24.426c.27-1.166 1.412 2.524 0 0zm31.496 27.855c1.71-.766-2.459-.965 0 0zm4.192 1.529c-.434-2.112-1.914 1.181 0 0zm5.247 2.189c2.498-2.379-3.85-1.5 0 0zm8.994 5.013c1.518-2.244-4.859-.847 0 0zm-17.271-12.039c3.88-2.51-5.012-.035 0 0zm3.937 1.963c-.11-1.327-1.403.594 0 0zm19.675 12.28c3.163 1.996 18.47 4.375 8.885.818-1.604.338-17.773-4.573-8.885-.818zM69.61 142.212c-.308-1.331-4.909-1.469 0 0zm9.159 5.338c2.384-1.663-4.948-1.282 0 0zm7.704 4.724c3.421-1.29-5.549-1.296 0 0zm-20.591-14.121c3.711 2.846 14.968.365 5.684-1.699-4.226-2.252-13.749-3.794-7.258 1.358l1.574.341h0zm25.809 15.752c1.546-2.634-6.483-1.504 0 0zm-7.842-6.233c9.075 2.567-7.631-5.739-2.239-.945l1.195.541 1.044.404h0zm15.724 9.088c8.595.082-7.763-1.185 0 0h0zm-36.997-23.58c-.336-1.601-2.121.134 0 0zm51.535 31.735c.229-2.891-2.805 2.152 0 0zm-36.868-22.753c-.52-1.523-2.685-.062 0 0zm-13.852-9.986c4.934-.296-6.755-2.174 0 0zm-16.41-10.607c-.614-2.365-5.369-4.252 0 0zm43.079 27.339c-.904-1.031-.425.225 0 0zm26.814 16.455c-.086-1.575-1.46.596 0 0zm-29.187-18.905c.483-2.029-4.207-.614 0 0zm-19.976-12.66c3.671-.393-5.88-2.482 0 0zm33.791 20.997c5.72-2.266-5.575-1.106 0 0zm-17.577-11.931c6.593.85-7.844-4.484-1.447-.477l1.447.477h0zm22.913 14.089c6.155-3.68 4.126 8.617 10.443 1.039 6.231-4.549-5.381 5.625 2.298.811 5.554-3.714 13.756 1.761 18.938 3.547 3.727-.183 7.349 3.222 11.17 1.151 7.354-1.981-14.381-2.938-8.683-6.452-6.729 1.958-11.701-2.335-15.012-6.645-7.548-1.743-16.275-5.602-20.043-12.282-1.536-2.508 2.219.353-1.326-3.746-4.548-4.045-6.819-8.638-9.873-13.555-3.648-1.946-4.072-7.673-4.441-.192.029-4.722-4.404-7.9-5.486-6.579-.019-4.547 4.744-2.268 1.409-5.632-.718-4.713-3.081-9.624-3.791-14.945-1.104-2.565-.155-8.059-3.767-2.252-1.316 6.137-.437-7.541 1.609-3.031 2.685-4.603-.964-4.061-1.114-3.422 1.749-3.883 1.107-9.392-.456-7.29.932-4.116 1.473-15.148-1.395-13.193 1.738-4.304 3.297-19.694-4.25-13.826-3.058.043-8.355 1.11-10.858 2.355 7.85 4.327-.79 1.563-3.985.875-.416 4.004-3.581 2.272-7.535 2.311 6.315.781-3.075 6.459-6.698 4.254-4.705 2.249 4.061 7.862.094 9.598.487 2.617-7.208-.945-6.604 5.098-4.568-1.922-.629 7.168 1.656 4.094 7.769 2.103 5.469 6.896 5.667 11.45-1.266 2.653-6.249-6.237-1.11-5.825-4.055-6.587-4.485-2.381-7.855.679-.784.222 8.594 4.354 2.709 6.397 5.178.799 5.325 5.33 6.379 8.197 3.112 3.242 2.475-3.579 6.199.316-2.356-3.471-12.482-9.778-4.33-7.755-.044-3.493-1.474-6.31 1.023-6.241 2.473-4.479-2.59 11.044 2.985 5.351 1.543-.674 1.926-4.485 4.7.36 4.029 3.964 1.455 6.836-4.228 3.206 1.017 3.449 7.603 4.682 6.365 10.076 1.312 4.744 3.148 2.997 4.748 2.723 1.255 4.61 1.968 1.22 2.028-.974 5.747 1.23 4.401 4.628 6.199 7.001 3.96 1.788-5.669-12.117 1.131-4.181 7.154 6.459 2.683 9.155-3.737 8.12 4.063-.328 5.373 5.493 10.456 5.289 4.635 2.205 7.772 10.673-.216 7.148-2.771-2.498-12.576-5.58-4.567-.828 7.397 3.425 13.271 5.474 20.405 9.774 5.105 3.645 7.311 7.819 9.246 8.645-4.291 2.049-12.931-1.637-6.515-2.766-4.002-.729-8.503-2.753-4.67 2.233 3.259 2.721 11.547 2.433 13.033 2.741-1.259 2.775-3.421 2.996.052 3.211-3.874 2.064 1.242 2.384 1.601 3.564zm-7.921-22.37c-2.357-2.465-2.966-7.081-.419-3.064 1.306.525 4.185 7.544.419 3.064h0zm25.797 16.387c1.47-.095.043 1.117 0 0zm-29.519-22.43c-.09-3.726.853 2.874 0 0zm-2.564-3.45c-2.964-5.728 3.737 1.622 0 0zM61.56 103.645c1.742-.464.857 2.979 0 0zm24.728 13.404c1.07-4.017 1.257 3.37 0 0zM68.82 104.9c-1.232-2.216 2.576 2.079 0 0zm14.993 4.806c-2.809-6.292 1.988-3.437.621 1.031l-.621-1.031h0zM57.958 92.464c-1.256-2.064-3.333-8.121-2.664-9.97.605 3.011 6.404 12.96 2.845 4.121-3.933-7.409 4.702 2.405 5.59 4.253.414 1.838-2.427-.502-.502 3.808-3.51-4.908-2.072 2.711-5.268-2.212zm-7.991-5.506c.329-4.8 1.829 3.291 0 0zm3.594 1.237c1.715-3.623 2.908 5.051 0 0zm-8.646-6.688c-2.975-2.956-5.128-5.681.139-1.835 2.029.079-4.509-6.197.489-1.993 5.255.958 2.595 8.617-.628 3.828zm4.542-.119c1.728-1.712.917 1.685 0 0zm2.795.896c-2.619-4.909 3.179 2.058 0 0zm-5.555-5.309C38.049 69.278 57.564 81 48.11 78.402l-1.413-1.427h0zm24.779 14.397c-3.743-2.244-.992-15.797.285-6.528 3.638-1.177-.201 4.787 2.513 4.732-.428 3.763-1.642 5.116-2.797 1.796zm9.165 5.417c.367-4.085.772 2.793 0 0zm-1.592-1.573c.412-1.745.043 2.055 0 0zm-30.656-20.77C42.837 66.78 64.54 82.2 51.952 76.39c-1.315-.344-2.898-.467-3.559-1.944zm17.649 9.357c-.526-6.455 1.174 1.07 0 0h0zm13.4 8.596c1.037-3.677.077 2.432 0 0zM49.244 71.52c3.302-.706 13.685 5.799 4.15 1.858-1.059-1.173-3.318-.64-4.15-1.858zM77.6 85.653c.353-6.6 1.971-3.942.012.945l-.012-.945h0zm-25.899-16.43c1.345-1.974-3.572-8.923.709-2.493 1.85 1.47 5.355 2.462 2.26 3.08 4.868 4.294-1.187 1.164-2.969-.587zm24.496 14.368c.93-7.518.82 4.405 0 0zM48.892 62.279c1.028-.439.543 1.369 0 0zm6.39 3.803c1.644-3.451 3.034 3.848 0 0zm18.024 10.026c-.017-1.325.34 1.928 0 0zm-1.044-2.311c-2.502-6.172 2.327 3.268 0 0zm-1.536-4.046c-.42-2.55 1.427 3.204 0 0h0zm2.5-4.064c-1.717-3.025 2.168-13.331 2.601-6.939-1.812 4.98-.523 7.766.741 1.086 2.334-5.257-.504 10.374-3.343 5.853h0zm2.569-15.327c.748-.919.166 1.107 0 0zm-4.29 84.534c-1.018-.888.128.565 0 0zm8.838 4.471c4.916 1.261 4.891-.765.448-1.367-2.39-2.223-9.93-4.581-3.181-.276.447 1.132 1.859 1.106 2.733 1.643zm-17.454-11.593c2.708 2.02 10.201 5.724 3.858.769 2.139-2.485-4.093-3.807-2.026-5.469-5.258-3.218-4.148-2.931-.464-2.83-6.319-2.825.912-2.613.572-4.061-2.437-.481-12.103-4.297-6.416.313-5.781-2.948-1.378 1.098-3.125.67-5.911-1.612 5.264 4.502-.939 2.984 3.391 2.688 9.128 6.884 1.434 2.844-1.014 1.459 5.506 3.671 7.107 4.779zm9.243 5.31c11.239 3.622-5.51-4.425 0 0zm47.316 28.664c.145-2.23-1.536 1.902 0 0zm4.863 2.047c2.593-2.513.106 4.002 4.297-.615.045-3.305-.129-5.258-4.816-1.243-1.292.716-1.869 3.763.519 1.858zm-77.199-48.482c-.796-3.13-5.582-3.114 0 0zm5.193 3.403c-1.928-3.197-6.881-2.895 0 0zm29.543 17.817c2.884 2.562 13.248 1.88 3.503.315-1.443-2.134-9.164-1.62-3.503-.315zm40.612 25.082c4.439-3.725-4.301 1.662 0 0zm9.233 6.345c.028-1.195-1.914.523 0 0zm.014-1.674c4.916-5.209-4.763.308 0 0h0zm-97.368-61.666c-4.19-5.978-2.605-8.665-6.645-13.547-.765-3.733-6.932-12.203-3.19-3.229 3.428 5.248 4.446 13.374 9.835 16.776zm95.826 60.01c9.044-5.846-3.713-2.546 0 0zm6.904 2.705c4.529-3.889-2.865-.813 0 0zm-91.497-58.629c1.296-1.928-3.348-.247 0 0zm90.056 56.783c4.385-2.827-1.01-2.393-.795.26l.795-.26h0zm-59.514-37.512c-.151-1.909-2.316.162 0 0zm3.678 2.116c-1.169-2.363-1.797.371 0 0zm62.873 37.306c5.618-4.053-3.406-.776-1.179.768l1.179-.768h0zm-2.151-1.04c4.577-3.835-4.832 1.7 0 0zm10.992 7.32c3.073-2.058-3.733-.666 0 0zM48.39 107.313c4.119.923 16.46 10.144 9.179.638-3.729-1.104-1.493-10.219-5.296-8.606 2.553 4.265 2.1 6.08-3.26 3.391-6.737-3.289-3.786 1.63-2.469 2.985-1.794.408 2.373 1.557 1.846 1.591zm-18.766-14.82c.737-3.05-6.79-16.779-3.554-6.879 1.168 2.074 1.049 6.004 3.554 6.879zm34.443 21.235c-2.121-1.774-.101-.251 0 0zm5.223 1.215c-.003-3.231-5.773-1.312 0 0zm45.261 28.533c-.863-2.207-3.412-.051 0 0h0zm2.174 1.588c-.321-1.235-1.254.238 0 0zm17.94 11.3c1.725-1.275-2.153-.163 0 0zM38.998 94.886c4.935-1.911-5.288-1.362 0 0zm71.57 45.089c-.055-3.195-3.146.793 0 0zm-73.52-49.633c3.17-1.071-2.933-.705 0 0zm9.202 4.457c-.058-1.05-.973.397 0 0zm112.231 68.822c4.077-.827 13.366 2.075 14.868-1.081-4.95-.12-17.127-3.493-17.703.805l1.084.171 1.752.105h0zM49.174 95.536c.071-3.238-2.525-.121 0 0zM24.981 78.754c-1.099-6.168-4.179-.934 0 0zm5.769 1.45c.071-1.981-5.281-1.782 0 0zm3.297 1.619c-.953-.772-.746.975 0 0zm20.745 13.308c.977-.897-2.312-.665 0 0zm-22.941-16.96c-.558-4.659-6.682-.698 0 0zm-11.828-7.675c-.168-2.15-1.153.811 0 0zm1.759-1.329c-.287-2.55-1.511.324 0 0zm9.721 5.802c4.11-1.615-7.487-3.34-.84-.305l.84.305zm130.098 80.359c2.631-2.412-3.344-.746 0 0zm15.717 8.147c1.054-3.119-2.655.411 0 0zm-144.821-93.6c.433-3.017-3.259.599 0 0zm-13.83-9.266c-.743-4.259-.641-11.735 6.465-9.209-9.486 1.883 6.565 11.79 4.538 3.968 3.989.195 7.803-2.357 5.709 1.516 7.859-.868 13.307-7.683 20.898-6.728 5.913-.782 12.378-1.376 18.75-3.756 5.239-.377 10.282-6.018 7.411-9.361-7.145-.605-14.623.289-22.52 1.859-8.751 1.819-16.699 5.275-25.528 6.759-8.606 1.156 1.731 3.185-.734 3.637-4.491 1.558 5.355 2.609-.582 4.251-3.667-.697-7.484-1.957-5.917-5.822-8.244 1.07-15.488 4.491-8.975 12.88l.484.004h0zm19.864-10.117c1.933-7.12 10.355 5.859 3.168.946-.858-.642-2.27-1.167-3.168-.946zm.376-3.452c2.79-2.078 1.483 1.165 0 0zm3.542.056c.252-3.276 8.109 1.735 1.296 1.179l-1.296-1.179h0zm4.845-1.948c1.769-2.068.509 1.839 0 0zm1.24-.83c2.946-3.54 16.686-2.259 6.629-.345-2.696-2.029-4.762 1.197-6.629.345zm17.93-2.764c-.448-9.67 8.908 3.436 0 0zm5.088-.028c1.86-4.874 7.218-1.956.861-.979.138.519-.186 2.516-.861.979zM30.491 67.374c5.558-3.403-5.9-2.953 0 0h0zm4.109 1.142c1.949-2.072-4.234-.84 0 0zm-12.108-8.593c3.176-2.439-3.758-.927 0 0zm164.102 102.662c.092-2.83-2.427 1.275 0 0zm-16.675-11.379c.474-3.258-2.143.284 0 0zm21.26 12.477c4.44.015 13.453-1.379 3.792-1.374-1.516.236-8.833.186-3.792 1.374h0zM38.215 66.518c3.593-.247 5.622-3.964-.695-3.75-9.79-1.014 8.638 3.352-1.256 2.104-1.329.88 1.874 1.89 1.951 1.646zm3.165 1.602c-.375-2.307-1.111 1.226 0 0zm3.754-10.01c1.559-1.934-2.158-.517 0 0zm-11.95-19.975c6.413-2.182 15.182-4.633 18.21 1.074-3.082-3.709-1.244-7.36 1.667-1.937 4.116 5.487 6.176-2.495 3.499-4.336 3.05 3.79 6.52 5.581 2.042.24 4.866-5.853-9.743.766-13.063.7-1.598.717-16.494 3.799-12.356 4.26zm3.758-7.198c3.657-2.76 12.649 1.642 6.879-2.743-.564-.498-12.636 3.325-6.879 2.743zm13.333.55c4.28.109-1.846-5.75 3.254-3.095-.838-2.737-5.939-3.249-8.432-4.342-1.41 2.502 2.871 7.471 5.178 7.437zM39.279 19.384c1.481-2.007-2.595 1.018 0 0zm5.45 1.304c6.898-.915-1.758-2.971-1.39-.074l1.39.074h0zm-10.175-7.962c-4.857-6.34 9.134 1.066 4.199-5.573-4.153-3.307-8.144 3.722-4.199 5.573zm62.33 33.573c2.228-3.949-9.197-5.323-1.501-1.4.709.237.548 1.673 1.501 1.4zm105.147-27.236c-.797 3.141-1.289 8.414-1.477 15.82 0 1.453-.656 2.18-1.969 2.18s-2.227-.633-2.742-1.898c-1.406-3.422-2.742-5.812-4.008-7.172-1.5-1.594-3.492-2.555-5.977-2.883-2.672-.422-9.328-.633-19.969-.633-2.438 0-4.031.258-4.781.773-.469.328-.703 1.031-.703 2.109v31.852c0 1.078.68 1.594 2.039 1.547 4.172-.047 10.219-.328 18.141-.844 1.547-.187 2.59-.691 3.129-1.512s1.066-2.941 1.582-6.363c.328-1.875 1.43-2.602 3.305-2.18 1.594.328 2.273 1.055 2.039 2.18-1.313 6.375-1.734 14.672-1.266 24.891.047 1.219-.727 1.875-2.32 1.969-1.313.141-2.133-.562-2.461-2.109-1.219-5.859-3.481-8.988-6.785-9.387s-8.684-.598-16.137-.598c-.844 0-1.266.305-1.266.914V99.36c0 2.344.867 3.937 2.602 4.781 1.359.703 4.289 1.336 8.789 1.898 2.297.234 3.305 1.242 3.023 3.023-.281 1.547-2.344 2.156-6.187 1.828-11.109-.891-20.273-.844-27.492.141-2.016.281-3.023-.539-3.023-2.461 0-1.219 1.008-1.922 3.023-2.109 4.594-.516 6.891-4.547 6.891-12.094V34.18c0-3.094-.551-5.473-1.652-7.137s-3.152-3.176-6.152-4.535c-1.875-.844-2.578-1.992-2.109-3.445.234-.891.609-1.383 1.125-1.477.469-.141 1.711-.047 3.727.281 2.953.469 9.914.703 20.883.703 12.937 0 24.117-.281 33.539-.844 3.141-.187 4.711.07 4.711.773a2.36 2.36 0 0 1-.07.563zm45.703 89.367c0 1.875-1.055 2.695-3.164 2.461-6.469-.609-14.484-.516-24.047.281-1.922.187-3.105.141-3.551-.141s-.668-1.055-.668-2.32c0-1.125 1.277-2.074 3.832-2.848s3.832-3.082 3.832-6.926V35.305c0-3.797-.551-6.586-1.652-8.367s-3.035-3.164-5.801-4.148c-1.453-.516-2.18-1.242-2.18-2.18 0-1.406 1.055-2.461 3.164-3.164 3.187-1.031 6.492-2.625 9.914-4.781 2.812-1.687 4.594-2.531 5.344-2.531 1.734 0 2.602 1.195 2.602 3.586 0-.187-.094 2.156-.281 7.031-.141 4.641-.188 9.211-.141 13.711l.281 62.789c0 2.859.703 4.934 2.109 6.223s3.82 2.145 7.242 2.566c2.109.234 3.164 1.031 3.164 2.391zm64.125-4.711c0 .984-1.793 2.473-5.379 4.465s-6.457 2.988-8.613 2.988c-1.828 0-3.445-.891-4.852-2.672s-2.391-2.672-2.953-2.672c-.422 0-2.648.961-6.68 2.883s-8.086 2.883-12.164 2.883c-3.844 0-7.055-1.125-9.633-3.375-2.813-2.484-4.219-5.859-4.219-10.125 0-8.109 9.281-13.922 27.844-17.437 3.187-.609 4.805-1.898 4.852-3.867l.141-4.5c.281-7.687-3.117-11.531-10.195-11.531-2.016 0-3.926 1.805-5.73 5.414s-4.395 5.555-7.77 5.836c-3.844.375-5.766-1.242-5.766-4.852 0-2.25 2.859-4.875 8.578-7.875 6-3.141 11.766-4.711 17.297-4.711 9.516 0 14.227 4.523 14.133 13.57l-.281 28.969c-.047 3.047 1.242 4.57 3.867 4.57.516 0 1.5-.117 2.953-.352s2.297-.352 2.531-.352c1.359 0 2.039.914 2.039 2.742zm-21.656-16.031c.047-1.172-.223-1.945-.809-2.32s-1.512-.445-2.777-.211c-11.297 2.016-16.945 5.695-16.945 11.039 0 5.391 2.93 8.086 8.789 8.086 2.344 0 4.758-.445 7.242-1.336 2.906-1.031 4.359-2.273 4.359-3.727zm74.109 7.664c0 4.969-1.91 8.918-5.73 11.848s-9.035 4.395-15.645 4.395c-4.406 0-8.813-.469-13.219-1.406-3.797-.844-6-1.617-6.609-2.32-.375-.656-.563-3.867-.562-9.633 0-2.484.562-3.773 1.688-3.867 1.125-.141 2.086.469 2.883 1.828 3.516 6.141 9.187 9.211 17.016 9.211 6.609 0 9.914-2.297 9.914-6.891 0-2.016-.75-3.703-2.25-5.062-1.641-1.547-4.828-3.352-9.562-5.414-6.844-3.047-11.414-5.719-13.711-8.016-2.484-2.437-3.727-5.719-3.727-9.844 0-5.062 1.945-9 5.836-11.812 3.609-2.719 8.437-4.078 14.484-4.078 3.797 0 7.266.305 10.406.914 3.375.609 5.133 1.359 5.273 2.25.375 2.625 1.148 6.422 2.32 11.391.141.609-.516 1.102-1.969 1.477-1.547.328-2.578.07-3.094-.773-3.703-6.047-8.391-9.07-14.062-9.07-6.422 0-9.633 2.063-9.633 6.188 0 2.297.867 4.125 2.602 5.484 1.547 1.172 5.18 3 10.898 5.484 6 2.578 10.078 4.898 12.234 6.961 2.812 2.672 4.219 6.258 4.219 10.758zm81.563 12.656c0 1.641-1.102 2.508-3.305 2.602-3.281.047-7.57.281-12.867.703-2.625.516-4.5.188-5.625-.984-7.406-7.969-13.688-16.312-18.844-25.031-.422-.75-.961-1.125-1.617-1.125-.797 0-2.18.703-4.148 2.109-2.203 1.219-3.305 2.953-3.305 5.203 0 1.594.047 3.891.141 6.891s.844 4.969 2.25 5.906c.984.656 3.258 1.172 6.82 1.547 2.203.281 3.305 1.102 3.305 2.461 0 1.078-.176 1.746-.527 2.004s-1.277.316-2.777.176c-4.688-.422-12.609-.187-23.766.703-2.813.234-4.336-.117-4.57-1.055-.094-.328-.141-.797-.141-1.406 0-1.453 1.43-2.555 4.289-3.305 2.578-.656 3.867-3.68 3.867-9.07V34.883c0-3.844-.375-6.516-1.125-8.016-1.031-1.922-3.188-3.422-6.469-4.5-1.547-.516-2.32-1.242-2.32-2.18 0-1.359 1.102-2.414 3.305-3.164 3.516-1.172 6.867-2.789 10.055-4.852 2.578-1.687 4.172-2.531 4.781-2.531 1.922 0 2.883 1.219 2.883 3.656a1498.98 1498.98 0 0 0-.07 6.961l-.07 13.781.141 44.016c0 1.219.328 1.828.984 1.828.703 0 1.781-.609 3.234-1.828 3.891-3.047 8.672-7.031 14.344-11.953 1.125-1.172 1.687-2.109 1.688-2.812 0-1.266-1.898-2.156-5.695-2.672-1.641-.187-2.414-1.102-2.32-2.742.141-1.641.961-2.344 2.461-2.109 3.375.469 8.297.727 14.766.773l13.43.07c1.453.047 2.18.914 2.18 2.602 0 1.594-1.149 2.461-3.445 2.602-3.609.141-7.008.961-10.195 2.461-4.453 2.016-9.211 5.555-14.273 10.617-.375.281-.563.633-.562 1.055 0 .656.797 2.227 2.391 4.711 5.859 8.906 11.391 15.633 16.594 20.18 3.328 2.859 6.445 4.289 9.352 4.289 2.156 0 3.492.152 4.008.457s.773 1.113.773 2.426zm-188.516 24.507c0 .164-.314.333-.943.506-.41.109-.757.483-1.039 1.121l-4.402 8.818c-.027.055-.096.077-.205.068-.1-.009-.169-.041-.205-.096-.219-.328-.779-1.472-1.682-3.432l-1.34-2.707c-.1 0-.588.87-1.463 2.611l-1.764 3.322c-.027.064-.091.091-.191.082-.1 0-.178-.036-.232-.109-.665-1.039-2.197-3.883-4.594-8.531-.273-.547-.579-.893-.916-1.039-.583-.255-.875-.442-.875-.561 0-.355.196-.515.588-.479 1.759.182 3.299.146 4.621-.109.301-.055.451.046.451.301 0 .355-.205.583-.615.684-.538.128-.807.328-.807.602 0 .173.064.428.191.766.328.848.82 1.923 1.477 3.227s1.039 1.955 1.148 1.955c.073 0 .46-.679 1.162-2.037l1.053-2.256c0-.355-.118-.738-.355-1.148-.283-.602-.611-.962-.984-1.08-.602-.21-.902-.415-.902-.615 0-.365.205-.515.615-.451 1.404.191 2.889.155 4.457-.109.301-.055.451.036.451.273 0 .346-.223.561-.67.643-.529.1-.793.369-.793.807 0 .21.059.456.178.738 1.404 3.436 2.215 5.154 2.434 5.154.082 0 .447-.67 1.094-2.01.693-1.431 1.176-2.584 1.449-3.459.018-.046.027-.096.027-.15 0-.392-.305-.697-.916-.916-.474-.155-.711-.328-.711-.52 0-.319.15-.442.451-.369.41.091 1.148.16 2.215.205l1.982-.014c.374-.046.561.059.561.314z"/><use xlink:href="#B"/><path d="M283.295 136.425c0 1.805-.629 3.318-1.887 4.539-1.203 1.176-2.634 1.764-4.293 1.764-.939 0-1.919-.155-2.939-.465-.984-.301-1.481-.574-1.49-.82l.014-2.201.041-3.363-.027-4.601-.027-3.999c0-.656-.1-1.107-.301-1.354-.182-.219-.579-.392-1.189-.52-.237-.082-.355-.232-.355-.451 0-.191.178-.351.533-.479.51-.182 1.144-.488 1.9-.916.602-.337.975-.506 1.121-.506.283 0 .424.232.424.697l-.041 1.422-.014 2.611.027 4.73c0 .447.155.574.465.383 1.094-.629 2.233-.943 3.418-.943 1.367 0 2.479.412 3.336 1.237s1.285 1.903 1.285 3.233zm-2.187 1.217c0-1.249-.346-2.274-1.039-3.076-.656-.756-1.454-1.135-2.393-1.135a4.01 4.01 0 0 0-1.914.506c-.629.337-.943.693-.943 1.066v3.664c0 1.759.971 2.639 2.912 2.639 1.012 0 1.827-.326 2.447-.978s.93-1.547.93-2.687z"/><use xlink:href="#C"/><use xlink:href="#B" x="47.797"/><path d="M332.268 132.487c0 .173-.287.351-.861.533-.374.109-.693.483-.957 1.121-.447 1.076-1.226 2.652-2.338 4.73l-2.174 3.855c-.027.064-.087.091-.178.082a.27.27 0 0 1-.205-.109c-1.932-2.78-3.587-5.624-4.963-8.531-.292-.62-.579-.966-.861-1.039-.529-.21-.793-.396-.793-.561 0-.365.178-.524.533-.479.556.073 1.381.091 2.475.055l2.229-.164c.264-.055.396.046.396.301 0 .319-.187.524-.561.615-.711.191-1.066.438-1.066.738 0 .137.046.333.137.588.31.766.866 1.871 1.668 3.315s1.258 2.167 1.367 2.167c.082 0 .469-.693 1.162-2.078l1.572-3.555c.046-.1.068-.201.068-.301 0-.355-.219-.647-.656-.875-.428-.173-.643-.337-.643-.492 0-.319.141-.451.424-.396.365.064 1.007.119 1.928.164l1.791.027c.337-.064.506.032.506.287z"/><use xlink:href="#B" x="74.922"/><path d="M352.844 142.167c0 .365-.205.524-.615.479-1.258-.118-2.816-.1-4.676.055-.374.036-.604.027-.69-.027s-.13-.205-.13-.451c0-.219.248-.403.745-.554s.745-.599.745-1.347v-12.373c0-.738-.107-1.281-.321-1.627s-.59-.615-1.128-.807c-.283-.1-.424-.242-.424-.424 0-.273.205-.478.615-.615.62-.201 1.262-.51 1.928-.93.547-.328.893-.492 1.039-.492.337 0 .506.232.506.697 0-.036-.018.419-.055 1.367l-.027 2.666.055 12.209c0 .556.137.959.41 1.21s.743.417 1.408.499c.41.046.615.201.615.465z"/><use xlink:href="#D"/><path d="M380.379 136.685c0 1.704-.572 3.151-1.716 4.341s-2.477 1.784-3.999 1.784a7.39 7.39 0 0 1-2.666-.492c-.091-.036-.137.187-.137.67v4.115c0 .665.542 1.094 1.627 1.285.501.091.818.175.95.253s.198.207.198.39c0 .31-.205.451-.615.424-1.914-.128-3.596-.082-5.045.137-.301.046-.488.046-.561 0s-.109-.169-.109-.369c0-.155.26-.342.779-.561.447-.182.67-.62.67-1.312V135.29c0-.975-.269-1.586-.807-1.832-.638-.283-.957-.515-.957-.697 0-.201.187-.351.561-.451.483-.118.98-.328 1.49-.629.428-.246.688-.369.779-.369.273 0 .497.251.67.752.255.729.424 1.094.506 1.094.018 0 .41-.214 1.176-.643.839-.465 1.659-.697 2.461-.697 1.303 0 2.379.369 3.227 1.107 1.012.866 1.518 2.119 1.518 3.76zm-2.324 1.094c0-1.486-.369-2.643-1.107-3.473-.602-.693-1.308-1.039-2.119-1.039-.629 0-1.23.219-1.805.656-.757.565-1.135 1.354-1.135 2.365v3.869c0 .246.346.506 1.039.779.747.301 1.559.451 2.434.451 1.796 0 2.693-1.203 2.693-3.609z"/><use xlink:href="#E"/><use xlink:href="#B" x="147.164"/><use xlink:href="#F"/><use xlink:href="#G"/><path d="M448.027 141.894c0 2.37-.998 4.152-2.994 5.346-.182.109-.314.164-.396.164-.128 0-.246-.146-.355-.437-.036-.1-.055-.182-.055-.246 0-.155.26-.41.779-.766.893-.62 1.34-1.322 1.34-2.105 0-.401-.26-.766-.779-1.094-.729-.456-1.094-1.016-1.094-1.682 0-.447.15-.818.451-1.114s.702-.444 1.203-.444c.602 0 1.069.219 1.401.656s.499 1.012.499 1.723z"/><use xlink:href="#D" x="-114.953" y="25.2"/><use xlink:href="#F" x="-165.266" y="25.2"/><use xlink:href="#B" x="9.734" y="25.2"/><use xlink:href="#C" x="-4.32" y="25.2"/><path d="M311.418 158.07c0 1.103-.319 1.654-.957 1.654-.1 0-.433-.064-.998-.191s-.98-.191-1.244-.191c-1.021 0-1.531.688-1.531 2.064v4.033c0 .474.164.811.492 1.012.191.118.67.278 1.436.479.41.1.615.255.615.465 0 .246-.034.394-.103.444s-.239.061-.513.034c-2.005-.21-3.591-.219-4.758-.027-.365.064-.597.064-.697 0-.082-.055-.123-.214-.123-.479 0-.246.253-.442.759-.588s.759-.583.759-1.312v-4.389c0-.574-.075-.962-.226-1.162s-.563-.469-1.237-.807l-.082-.041c-.182-.091-.273-.219-.273-.383 0-.182.187-.337.561-.465.629-.219 1.203-.529 1.723-.93.428-.337.702-.506.82-.506.328 0 .524.283.588.848.082.72.178 1.08.287 1.08.009 0 .52-.342 1.531-1.025.665-.447 1.395-.67 2.188-.67.656 0 .984.351.984 1.053z"/><use xlink:href="#D" x="-41.125" y="25.2"/><path d="M339.254 161.885c0 1.704-.572 3.151-1.716 4.341s-2.477 1.784-3.999 1.784a7.39 7.39 0 0 1-2.666-.492c-.091-.036-.137.187-.137.67v4.115c0 .665.542 1.094 1.627 1.285.501.091.818.175.95.253s.198.207.198.39c0 .31-.205.451-.615.424-1.914-.128-3.596-.082-5.045.137-.301.046-.488.046-.561 0s-.109-.169-.109-.369c0-.155.26-.342.779-.561.447-.182.67-.62.67-1.312V160.49c0-.975-.269-1.586-.807-1.832-.638-.283-.957-.515-.957-.697 0-.201.187-.351.561-.451.483-.118.98-.328 1.49-.629.428-.246.688-.369.779-.369.273 0 .497.251.67.752.255.729.424 1.094.506 1.094.018 0 .41-.214 1.176-.643.839-.465 1.659-.697 2.461-.697 1.303 0 2.379.369 3.227 1.107 1.012.866 1.518 2.119 1.518 3.76zm-2.324 1.094c0-1.486-.369-2.643-1.107-3.473-.602-.693-1.308-1.039-2.119-1.039-.629 0-1.23.219-1.805.656-.757.565-1.135 1.354-1.135 2.365v3.869c0 .246.346.506 1.039.779.747.301 1.559.451 2.434.451 1.796 0 2.693-1.203 2.693-3.609z"/><use xlink:href="#H"/><use xlink:href="#G" x="-73.117" y="25.2"/><use xlink:href="#H" x="28.984"/><use xlink:href="#G" x="-37.187" y="25.2"/><path d="M411.483 151.945c0 .419-.157.809-.472 1.169s-.659.54-1.032.54c-.428 0-.779-.128-1.053-.383s-.41-.588-.41-.998c0-.401.166-.775.499-1.121s.69-.52 1.073-.52c.93 0 1.395.438 1.395 1.313zM413 167.422c-.046.264-.155.415-.328.451-.046.009-.264 0-.656-.027-1.358-.091-2.693-.073-4.006.055-.355.036-.579.023-.67-.041s-.137-.21-.137-.437c0-.21.242-.383.725-.52.529-.155.793-.661.793-1.518v-3.582c0-.72-.073-1.226-.219-1.518-.201-.401-.615-.706-1.244-.916-.283-.1-.424-.251-.424-.451 0-.264.205-.46.615-.588.766-.237 1.445-.551 2.037-.943.474-.328.766-.492.875-.492.365 0 .542.237.533.711l-.055 7.301c0 .592.087 1.016.26 1.271.191.283.556.483 1.094.602.592.137.861.351.807.643z"/><use xlink:href="#E" x="31.992" y="25.2"/><use xlink:href="#B" x="179.156" y="25.2"/><defs ><path id="B" d="M269.473 140.267c0 .392-.529.88-1.586 1.463-1.203.647-2.438.971-3.705.971-1.376 0-2.534-.451-3.473-1.354-1.003-.957-1.504-2.233-1.504-3.828 0-1.805.561-3.254 1.682-4.348 1.048-1.021 2.333-1.531 3.855-1.531.902 0 1.745.287 2.529.861.702.51 1.167 1.094 1.395 1.75.082.228.205.355.369.383.237.046.355.205.355.479 0 .374-.447.693-1.34.957l-6.303 1.873c.41 2.169 1.522 3.254 3.336 3.254 1.048 0 2.242-.383 3.582-1.148.201-.118.396-.178.588-.178.146 0 .219.132.219.396zm-3.24-5.482c0-.501-.203-.941-.608-1.319s-.905-.567-1.497-.567c-1.677 0-2.516 1.208-2.516 3.623v.328l3.719-1.121c.602-.173.902-.488.902-.943z"/><path id="C" d="M305.416 141.224c.036.082.055.141.055.178 0 .191-.465.506-1.395.943-1.076.501-1.709.752-1.9.752-.164 0-.353-.276-.567-.827s-.362-.827-.444-.827c.009 0-.508.239-1.552.718s-1.834.718-2.372.718c-1.203 0-2.247-.433-3.131-1.299-1.066-1.03-1.6-2.475-1.6-4.334 0-1.559.629-2.903 1.887-4.033 1.112-.993 2.247-1.49 3.404-1.49.82 0 1.8.105 2.939.314.355.064.533-.041.533-.314v-4.676c0-.529-.128-.902-.383-1.121-.164-.146-.551-.319-1.162-.52-.292-.109-.438-.287-.437-.533 0-.228.196-.396.588-.506.538-.164 1.18-.437 1.928-.82.62-.328 1.003-.492 1.148-.492.337 0 .506.232.506.697 0-.009-.014.444-.041 1.36l-.041 2.673v12.428c0 .52.232.779.697.779.173 0 .406-.027.697-.082.319-.055.533.05.643.314zm-4.225-1.354v-4.895c0-.401-.355-.816-1.066-1.244-.757-.456-1.577-.684-2.461-.684-1.905 0-2.857 1.176-2.857 3.527 0 1.258.378 2.333 1.135 3.227s1.645 1.34 2.666 1.34c.465 0 1.012-.155 1.641-.465s.943-.579.943-.807z"/><path id="D" d="M366.092 137.054c0 1.586-.588 2.928-1.764 4.026s-2.634 1.647-4.375 1.647-3.117-.483-4.129-1.449c-.975-.948-1.463-2.201-1.463-3.76 0-1.613.615-2.971 1.846-4.074 1.194-1.066 2.62-1.6 4.279-1.6 1.777 0 3.163.479 4.156 1.436.966.93 1.449 2.188 1.449 3.773zm-2.406.834c0-1.431-.346-2.593-1.039-3.486-.674-.866-1.531-1.299-2.57-1.299-.966 0-1.755.34-2.365 1.019s-.916 1.506-.916 2.481c0 1.568.355 2.789 1.066 3.664a3.16 3.16 0 0 0 2.57 1.203c1.003 0 1.796-.333 2.379-.998s.875-1.527.875-2.584z"/><path id="E" d="M405.084 142.194c0 .301-.141.442-.424.424-1.859-.137-3.591-.137-5.195 0-.355.027-.533-.132-.533-.479 0-.273.242-.419.725-.437.611-.036.916-.533.916-1.49v-3.637c0-2.042-.829-3.062-2.488-3.062-.875 0-1.677.16-2.406.479-.665.283-1.003.565-1.012.848l-.055 5.428c0 .565.068.939.205 1.121.1.128.324.219.67.273.802.137 1.203.305 1.203.506 0 .173-.023.292-.068.355-.055.091-.219.132-.492.123-1.039-.036-2.552-.018-4.539.055-.283.009-.465-.014-.547-.068s-.123-.182-.123-.383c0-.237.26-.383.779-.437.565-.064.848-.579.848-1.545v-3.719c0-1.003-.228-1.777-.684-2.324-.401-.492-.911-.738-1.531-.738-.911 0-1.732.185-2.461.554s-1.094.763-1.094 1.183v4.99c0 .565.146.957.438 1.176.264.201.743.324 1.436.369.374.018.561.146.561.383 0 .264-.15.396-.451.396l-4.949.191c-.346.046-.57.046-.67 0-.082-.046-.123-.155-.123-.328 0-.228.337-.424 1.012-.588.41-.109.615-.643.615-1.6v-4.197c0-1.066-.287-1.682-.861-1.846-.483-.137-.777-.237-.882-.301s-.157-.169-.157-.314c0-.164.474-.51 1.422-1.039 1.003-.565 1.618-.848 1.846-.848.191 0 .353.276.485.827s.235.827.308.827c.1 0 .378-.141.834-.424.565-.355 1.076-.62 1.531-.793.747-.292 1.518-.437 2.311-.437.638 0 1.194.137 1.668.41a3.13 3.13 0 0 1 .889.752l.328.41c0 0 .237-.137.711-.41.556-.319 1.098-.57 1.627-.752a6.76 6.76 0 0 1 2.256-.41c2.497 0 3.746 1.372 3.746 4.115v4.43c0 .52.123.889.369 1.107.219.182.647.337 1.285.465.483.091.725.228.725.41z"/><path id="F" d="M433.043 142.317c0 .283-.205.41-.615.383l-4.457-.055c-.52.036-.802-.027-.848-.191a.77.77 0 0 1-.027-.232c0-.182.264-.346.793-.492.483-.137.725-.606.725-1.408v-3.637c0-2.087-.907-3.131-2.721-3.131-.811 0-1.563.191-2.256.574-.656.374-.984.761-.984 1.162v5.004c0 .857.561 1.335 1.682 1.436.428.036.643.173.643.41 0 .228-.059.365-.178.41-.055.018-.21.023-.465.014a26.22 26.22 0 0 0-4.43.219c-.328.046-.533.059-.615.041-.182-.036-.273-.178-.273-.424 0-.219.26-.406.779-.561.483-.146.725-.752.725-1.818v-4.143c0-.702-.091-1.148-.273-1.34-.128-.137-.551-.328-1.271-.574a.37.37 0 0 1-.273-.383c0-.182.187-.342.561-.479.51-.191 1.071-.497 1.682-.916.51-.346.839-.52.984-.52.246 0 .41.28.492.841s.196.841.342.841c-.073 0 .392-.267 1.395-.8s1.992-.8 2.967-.8c2.361 0 3.55 1.344 3.568 4.033l.027 4.402c0 .565.146.971.438 1.217.219.182.643.337 1.271.465.41.082.615.232.615.451z"/><path id="G" d="M441.82 141.278c0 .438-.401.811-1.203 1.121-.711.273-1.431.41-2.16.41-1.978 0-2.967-1.053-2.967-3.158v-4.949c0-.629-.05-1.014-.15-1.155s-.433-.28-.998-.417c-.146-.036-.219-.178-.219-.424 0-.264.055-.424.164-.479.984-.483 1.841-1.349 2.57-2.598.1-.173.296-.228.588-.164.201.064.305.182.314.355l.055 1.709c0 .128.023.219.068.273.064.082.21.123.438.123h3.049c.173 0 .173.214 0 .643-.21.52-.52.779-.93.779h-2.064c-.355 0-.574.059-.656.178-.064.082-.096.305-.096.67v4.471c0 1.13.1 1.846.301 2.146.264.383.88.574 1.846.574.319 0 .706-.052 1.162-.157l.725-.157c.109 0 .164.068.164.205z"/><path id="H" d="M359.516 166.451c0 .191-.349.481-1.046.868s-1.256.581-1.675.581c-.355 0-.67-.173-.943-.52s-.465-.52-.574-.52c-.082 0-.515.187-1.299.561s-1.572.561-2.365.561c-.747 0-1.372-.219-1.873-.656-.547-.483-.82-1.139-.82-1.969 0-1.577 1.805-2.707 5.414-3.391.62-.118.934-.369.943-.752l.027-.875c.055-1.495-.606-2.242-1.982-2.242-.392 0-.763.351-1.114 1.053s-.854 1.08-1.511 1.135c-.747.073-1.121-.242-1.121-.943 0-.437.556-.948 1.668-1.531 1.167-.611 2.288-.916 3.363-.916 1.85 0 2.766.88 2.748 2.639l-.055 5.633c-.009.592.242.889.752.889a4.43 4.43 0 0 0 .574-.068l.492-.068c.264 0 .396.178.396.533zm-4.211-3.117c.009-.228-.043-.378-.157-.451s-.294-.087-.54-.041c-2.197.392-3.295 1.107-3.295 2.146 0 1.048.57 1.572 1.709 1.572.456 0 .925-.087 1.408-.26.565-.201.848-.442.848-.725z"/></defs></svg>