<svg id="Icons" height="512" viewBox="0 0 74 74" width="512" xmlns="http://www.w3.org/2000/svg"><path d="m59.428 72.182c-3.1 0-7-1.111-11.517-3.318-7.687-3.764-16.365-10.273-24.433-18.342s-14.578-16.746-18.342-24.433c-3.915-8-4.381-14.1-1.313-17.171l5.8-5.8a3.178 3.178 0 0 1 4.486 0l12.767 12.772a3.174 3.174 0 0 1 0 4.485l-3.986 3.986c-1.212 1.213 3.033 9.47 10.155 16.594s15.376 11.363 16.594 10.155l3.986-3.986a3.171 3.171 0 0 1 4.485 0l12.77 12.769a3.176 3.176 0 0 1 0 4.486l-5.8 5.8a7.692 7.692 0 0 1 -5.652 2.003zm-47.564-67.99a1.168 1.168 0 0 0 -.829.343l-5.8 5.8c-2.382 2.381-1.764 7.8 1.7 14.877 3.665 7.495 10.043 15.981 17.959 23.9s16.406 14.288 23.896 17.955c7.074 3.46 12.5 4.076 14.877 1.7l5.8-5.8a1.176 1.176 0 0 0 0-1.658l-12.767-12.771a1.2 1.2 0 0 0 -1.657 0l-3.986 3.986c-3.234 3.234-14.426-5.16-19.422-10.155s-13.392-16.188-10.159-19.422l3.986-3.986a1.17 1.17 0 0 0 0-1.657l-12.769-12.77a1.17 1.17 0 0 0 -.829-.342z"/><path d="m22.184 24.652a.993.993 0 0 1 -.707-.293l-15.843-15.843a1 1 0 0 1 1.414-1.416l15.843 15.845a1 1 0 0 1 -.707 1.707z"/><path d="m66.191 68.659a.993.993 0 0 1 -.707-.293l-15.843-15.843a1 1 0 0 1 1.414-1.414l15.845 15.843a1 1 0 0 1 -.707 1.707z"/><path d="m69 35.924a1 1 0 0 1 -1-1 28.954 28.954 0 0 0 -28.924-28.924 1 1 0 0 1 0-2 30.958 30.958 0 0 1 30.924 30.924 1 1 0 0 1 -1 1z"/><path d="m58.312 35.924a1 1 0 0 1 -1-1 18.257 18.257 0 0 0 -18.236-18.236 1 1 0 0 1 0-2 20.259 20.259 0 0 1 20.236 20.236 1 1 0 0 1 -1 1z"/><path d="m47.625 35.924a1 1 0 0 1 -1-1 7.557 7.557 0 0 0 -7.549-7.549 1 1 0 1 1 0-2 9.56 9.56 0 0 1 9.549 9.549 1 1 0 0 1 -1 1z"/></svg>