<?xml version="1.0" encoding="utf-8"?>
<!-- Generator: Adobe Illustrator 19.0.0, SVG Export Plug-In . SVG Version: 6.00 Build 0)  -->
<svg version="1.1" id="layer" xmlns="http://www.w3.org/2000/svg" xmlns:xlink="http://www.w3.org/1999/xlink" x="0px" y="0px"
	 viewBox="-153 -46 652 652" style="enable-background:new -153 -46 652 652;" xml:space="preserve">
<style type="text/css">
	.st0{fill:#1A171B;}
	.st1{fill:#FFFFFF;}
</style>
<circle class="st0" cx="-57" cy="274.7" r="74.8"/>
<path class="st1" d="M-24.3,227.5c-7.6,0.3-14.2,4.5-19.2,10.2c-5.5,6.4-9.1,13.9-11.7,21.6c-4.7-3.8-8.3-8.8-15.8-11
	c-5.8-1.7-11.9-1-17.5,3.2c-2.7,2-4.5,5-5.4,7.8c-2.3,7.3,2.4,13.9,4.5,16.2l4.6,4.9c0.9,1,3.2,3.5,2.1,7.1c-1.2,3.9-5.9,6.5-10.8,5
	c-2.2-0.7-5.3-2.3-4.6-4.6c0.3-0.9,1-1.6,1.3-2.4c0.3-0.7,0.5-1.2,0.6-1.5c0.9-2.9-0.3-6.7-3.4-7.6c-2.9-0.9-5.9-0.2-7,3.5
	c-1.3,4.2,0.7,11.9,11.6,15.3c12.7,3.9,23.5-3,25-12c1-5.7-1.6-9.9-6.3-15.3l-3.8-4.2c-2.3-2.3-3.1-6.2-0.7-9.3
	c2-2.5,4.9-3.6,9.6-2.4c6.9,1.9,9.9,6.6,15,10.5c-2.1,6.9-3.5,13.9-4.7,20.1l-0.8,4.6c-3.7,19.2-6.4,29.7-13.7,35.7
	c-1.5,1-3.5,2.6-6.7,2.7c-1.6,0.1-2.2-1.1-2.2-1.6c0-1.2,0.9-1.7,1.6-2.2c1-0.5,2.4-1.4,2.3-4.2c-0.1-3.3-2.9-6.2-6.8-6.1
	c-3,0.1-7.5,2.9-7.3,8c0.2,5.3,5.1,9.3,12.5,9c4-0.1,12.8-1.8,21.6-12.2c10.2-11.9,13-25.6,15.2-35.6l2.4-13.2
	c1.3,0.2,2.7,0.3,4.3,0.3c12.7,0.3,19-6.3,19.1-11.1c0.1-2.9-1.9-5.7-4.6-5.7c-2,0.1-4.4,1.4-5,4.1c-0.6,2.7,4,5.1,0.4,7.4
	c-2.6,1.7-7.2,2.8-13.6,1.9l1.2-6.5c2.4-12.3,5.4-27.5,16.6-27.9c0.8,0,3.8,0,3.9,2c0,0.7-0.1,0.8-0.9,2.3c-0.8,1.2-1.1,2.2-1,3.3
	c0.1,3.1,2.5,5.2,6,5.1c4.6-0.1,6-4.7,5.9-7C-11,230.7-16.7,227.3-24.3,227.5L-24.3,227.5z"/>
<path class="st0" d="M321.8,253.6c17.2,0,28.8,12.5,28.8,29.7c0,16.2-11.8,29.7-28.8,29.7c-17.1,0-28.9-13.5-28.9-29.7
	C292.8,266.1,304.4,253.6,321.8,253.6z M321.8,304.6c12.2,0,17.7-11.1,17.7-21.3c0-10.8-6.6-21.2-17.7-21.2
	c-11.2,0-17.8,10.5-17.8,21.2C304,293.5,309.4,304.6,321.8,304.6z M291.4,258.9v-3.9h-15v-5.4c0-7.7,1.1-13.5,10.1-13.5
	c0.2,0,0.3,0,0.5,0c0,0,0,0,0,0c2.5,0.2,4.6-1.9,4.7-4.3l0.2-3.4c-2.1-0.3-4.3-0.7-7-0.7c-15.5,0-19,9-19,22.8v4.5h-13.4v4.4
	c0.3,2.3,2.3,4,4.7,4c0,0,0,0,0,0h8.6v48.3h5.8l0,0c2.4,0,4.4-1.8,4.7-4.1v-44.2h10.5C289.3,263.3,291.3,261.4,291.4,258.9
	L291.4,258.9z M152.1,254.9C152.1,254.9,152,255,152.1,254.9c-2.3,0-4.4,1.5-5.3,3.6l-14.4,43.4h-0.2l-14.1-43.4
	c-0.9-2.1-3.1-3.6-5.3-3.6c0,0,0,0-0.1,0h-7.3l19.3,53c0.7,1.9,2,4.8,2,6c0,1.1-3.1,14-12.5,14c-0.2,0-0.5,0-0.7,0
	c-2.4-0.1-4.2,1.5-4.6,4.1l-0.3,3.6c1.9,0.3,3.8,0.8,7.1,0.8c13.8,0,17.9-12.6,21.8-23.5l20.9-58L152.1,254.9L152.1,254.9z
	 M85.6,266.5c-8.6-4.4-18.1-7.4-18.3-16.3c0-9.4,8.7-11.9,15.4-11.9c0,0,0.1,0,0.1,0c2.9,0,5.2,0.3,7.5,0.8c0,0,0,0,0.1,0
	c2.4,0.2,4.4-1.7,4.7-4.1l0.2-3.4c-4.4-1.1-9-1.6-13-1.6c-14.5,0.1-25.3,7.4-25.4,21.4c0,12.2,8.2,16.9,17.1,21.2
	c8.7,4.2,18.2,7.6,18.3,17.7c-0.1,10.5-10.2,14.4-17.2,14.4c-4.1,0-8.5-1-12.3-2.2c-2.3-0.4-4.3,1.7-4.6,4.4l-0.3,3.1
	c5.1,1.7,10.4,3.1,15.7,3.1h0.1c16.3-0.1,28.9-6.6,29-23.5C102.7,276.4,94.4,271,85.6,266.5L85.6,266.5z M243.8,311.7L243.8,311.7
	c2.3,0,4.2-1.6,4.6-3.7v-32.7c0-12.4-5.2-21.7-19.7-21.7c-5.1,0-13.7,2.9-17.6,11c-3-7.7-9.6-11-16.1-11c-8.3,0-14,3-18,9.6h-0.2
	v-3.5c0-2.6-2.1-4.7-4.7-4.7c0,0,0,0-0.1,0h-5v56.7h5.7l0,0c2.6,0,4.7-2.1,4.7-4.7c0-0.1,0-0.1,0-0.1v-23.7c0-10.6,4.2-21,14.9-21
	c8.5,0,10.1,8.8,10.1,15.8v33.8h5.7l0,0c2.4,0,4.5-1.9,4.7-4.3v-24.3c0-10.6,4.2-21,14.9-21c8.5,0,10.1,8.8,10.1,15.8v33.8
	L243.8,311.7L243.8,311.7z M405.4,311.7L405.4,311.7c2.5,0,4.6-2,4.7-4.5V278c0-15.2-6.6-24.4-21.3-24.4c-7.9,0-15.5,3.9-18.6,10.4
	h-0.2v-4.2c0,0,0,0,0,0c0-2.6-2.1-4.7-4.7-4.8c0,0,0,0,0,0c0,0,0,0-0.1,0h-5.3v56.7h5.7l0,0c2.5,0,4.5-1.9,4.7-4.4v-21.9
	c0-13.8,5.3-23.4,17.2-23.4c9.1,0.6,12,7,12,20.2v29.4L405.4,311.7L405.4,311.7z M461.7,254.9C461.7,254.9,461.7,255,461.7,254.9
	c-2.3,0-4.4,1.5-5.3,3.6L442,301.9h-0.2l-14.1-43.4c-0.9-2.1-3.1-3.6-5.3-3.6c0,0,0,0,0,0h-7.3l19.3,53c0.7,1.9,2,4.8,2,6
	c0,1.1-3.1,14-12.5,14c-0.2,0-0.5,0-0.7,0c-2.4-0.1-4.2,1.5-4.6,4.1l-0.3,3.6c1.9,0.3,3.8,0.8,7.1,0.8c13.8,0,17.9-12.6,21.8-23.5
	l20.9-58L461.7,254.9L461.7,254.9z"/>
</svg>
