<svg height="640pt" viewBox="-20 -20 640 640" width="640pt" xmlns="http://www.w3.org/2000/svg"><path d="m300 280c-33.132812 0-60-26.867188-60-60s26.867188-60 60-60 60 26.867188 60 60c-.035156 33.125-26.875 59.964844-60 60zm0-100c-22.089844 0-40 17.910156-40 40s17.910156 40 40 40 40-17.910156 40-40-17.910156-40-40-40zm0 0"/><path d="m470 320c-33.132812 0-60-26.867188-60-60s26.867188-60 60-60 60 26.867188 60 60c-.035156 33.125-26.875 59.964844-60 60zm0-100c-22.089844 0-40 17.910156-40 40s17.910156 40 40 40 40-17.910156 40-40-17.910156-40-40-40zm0 0"/><path d="m130 320c-33.132812 0-60-26.867188-60-60s26.867188-60 60-60 60 26.867188 60 60c-.035156 33.125-26.875 59.964844-60 60zm0-100c-22.089844 0-40 17.910156-40 40s17.910156 40 40 40 40-17.910156 40-40-17.910156-40-40-40zm0 0"/><path d="m410 200c-33.132812 0-60-26.867188-60-60s26.867188-60 60-60 60 26.867188 60 60c-.035156 33.125-26.875 59.964844-60 60zm0-100c-22.089844 0-40 17.910156-40 40s17.910156 40 40 40 40-17.910156 40-40-17.910156-40-40-40zm0 0"/><path d="m300 120c-33.132812 0-60-26.867188-60-60s26.867188-60 60-60 60 26.867188 60 60c-.035156 33.125-26.875 59.964844-60 60zm0-100c-22.089844 0-40 17.910156-40 40s17.910156 40 40 40 40-17.910156 40-40-17.910156-40-40-40zm0 0"/><path d="m190 200c-33.132812 0-60-26.867188-60-60s26.867188-60 60-60 60 26.867188 60 60c-.035156 33.125-26.875 59.964844-60 60zm0-100c-22.089844 0-40 17.910156-40 40s17.910156 40 40 40 40-17.910156 40-40-17.910156-40-40-40zm0 0"/><path d="m290 520h20v80h-20zm0 0"/><path d="m560.660156 345.660156c-14.902344-10.246094-32.574218-15.707031-50.660156-15.660156h-80c-4.859375.042969-9.703125.484375-14.492188 1.308594-6.488281-10.121094-14.9375-18.84375-24.847656-25.648438-14.902344-10.246094-32.574218-15.707031-50.660156-15.660156h-80c-30.570312.023438-59.039062 15.582031-75.570312 41.296875-4.765626-.820313-9.589844-1.253906-14.429688-1.296875h-80c-18.070312-.046875-35.734375 5.40625-50.628906 15.640625-24.613282 16.746094-39.355469 44.589844-39.371094 74.359375v60c.03125 27.304688 15.921875 52.105469 40.71875 63.539062 6.109375 2.851563 12.605469 4.773438 19.28125 5.679688v50.78125h20v-210h-20v139c-3.757812-.757812-7.417969-1.964844-10.890625-3.589844-17.722656-8.175781-29.085937-25.894531-29.109375-45.410156v-60c.023438-23.167969 11.503906-44.828125 30.660156-57.859375 11.574219-7.945313 25.296875-12.179687 39.339844-12.140625h80c1.738281 0 3.429688.191406 5.140625.308594-3.382813 9.535156-5.121094 19.574218-5.140625 29.691406v80c.007812 12.640625 3.46875 25.042969 10 35.867188v104.132812h20v-82.640625c8.929688 6.25 19.210938 10.300781 30 11.839844v70.800781h20v-250h-20v159c-23.265625-4.785156-39.96875-25.25-40-49v-80c.042969-38.640625 31.359375-69.957031 70-70h80c14.054688-.039062 27.789062 4.203125 39.371094 12.15625 19.140625 13.039062 30.605468 34.683594 30.628906 57.84375v80c-.035156 19.574219-11.476562 37.335938-29.28125 45.460938-3.414062 1.613281-7.011719 2.800781-10.71875 3.539062v-159h-20v250h20v-70.78125c6.617188-.890625 13.0625-2.777344 19.109375-5.601562 3.820313-1.765626 7.460937-3.890626 10.890625-6.335938v82.71875h20v-104.3125c6.527344-10.757812 9.992188-23.101562 10-35.6875v-80c-.039062-10.117188-1.789062-20.15625-5.171875-29.691406 1.71875-.117188 3.421875-.308594 5.171875-.308594h80c14.054688-.039062 27.789062 4.203125 39.371094 12.15625 19.140625 13.039062 30.605468 34.683594 30.628906 57.84375v60c-.035156 19.574219-11.476562 37.335938-29.28125 45.460938-3.414062 1.613281-7.011719 2.800781-10.71875 3.539062v-139h-20v210h20v-50.78125c6.617188-.890625 13.0625-2.777344 19.109375-5.601562 24.882813-11.398438 40.851563-36.242188 40.890625-63.617188v-60c-.015625-29.761719-14.742188-57.585938-39.339844-74.339844zm0 0"/><path d="m460 560h20v40h-20zm0 0"/><path d="m120 560h20v40h-20zm0 0"/></svg>